<svg xmlns="http://www.w3.org/2000/svg" xmlns:xlink="http://www.w3.org/1999/xlink" viewBox="0 0 428 250"><defs><clipPath id="a"><path d="M119.03811,29.58372s-.02,7.96382,20.79792,20.61162c40.41941,24.55663,40.28318,47.06949,40.28318,51.79394,0,20.06893-20.88762,33.04231-30.5793,22.54224,0,0,9.50966-7.05764,9.50966-17.91,0,0-6.97376,4.59639-10.61913,5.38887,0,0,4.75483-8.40028,2.53591-23.14029,0,0-3.80382,7.44927-16.00792,13.4721,0,0,4.75483-10.61913.317-20.76283,0,0,.95093,12.67961-27.89512,26.15162S87.41,134.67514,87.41,134.67514s5.75026-6.10629,15.51272-1.81774c13.20736,5.80184,7.87,29.08437-13.36834,29.08437-20.67747,0-34.24962-22.48689-34.24962-40.04616,0-7.26015.787-20.61718,13.904-35.30817,10.43295-11.6849,23.29777-17.84991,26.059-30.771-14.29747,13.24812-40.0758,21.89389-55.40589,44.5658-13.76979,20.36437-9.29919,47.30036-6.82038,55.586a91.1633,91.1633,0,0,0,87.31244,64.96411c50.32581,0,91.64753-40.27245,91.64753-90.59818C212.00139,54.146,139.57049,46.06172,119.03811,29.58372ZM106.8452,122.85039c-1.53364.35686-3.002-.28484-5.45253-1.03012a8.25747,8.25747,0,0,0-3.10242-.56341,38.82583,38.82583,0,0,1,4.84894-2.78109c2.43419-1.1208,4.51346-1.17918,5.48062,1.05088A2.54475,2.54475,0,0,1,106.8452,122.85039Z" fill="none"/></clipPath><linearGradient id="b" x1="166.3138" y1="208.72417" x2="76.92479" y2="53.89786" gradientUnits="userSpaceOnUse"><stop offset="0" stop-color="#1973b4"/><stop offset="1" stop-color="#54b9de"/></linearGradient></defs><title>-</title><g style="isolation:isolate"><path d="M261.9905,180.60612a41.60059,41.60059,0,0,1-14.16553-2.17969,24.52105,24.52105,0,0,1-15.72217-16.16309,42.36861,42.36861,0,0,1-1.86816-13.0498V100.64567H247.5657V148.7985q0,8.61328,3.4502,13.17969,3.45044,4.56592,11.23389,4.56592,7.62817,0,11.02637-4.56592,3.39844-4.56592,3.39893-13.17969V100.64567H293.6946v48.46387a42.885,42.885,0,0,1-1.86816,13.10205,25.63256,25.63256,0,0,1-5.73389,9.93652,25.02212,25.02212,0,0,1-9.88477,6.27832A41.77872,41.77872,0,0,1,261.9905,180.60612Z" fill="#1973b4"/><path d="M309.41677,179.30875V100.64567h17.22705v78.66309Z" fill="#1973b4"/><path d="M366.70193,180.81364a45.73926,45.73926,0,0,1-16.88965-2.82812,42.14719,42.14719,0,0,1-12.53125-7.60156l8.71729-11.36377a32.58584,32.58584,0,0,0,8.95068,5.75977,26.21409,26.21409,0,0,0,10.71484,2.2832q7.83472,0,11.38965-3.91748a14.29827,14.29827,0,0,0,3.5542-9.98877q0-6.6936-3.4502-10.45557-3.4519-3.76172-10.14453-3.76172a16.53692,16.53692,0,0,0-7.70508,1.89355,21.59923,21.59923,0,0,0-6.71973,5.62988l-11.15625-3.47656,3.16553-42.34082h47.7373l-.88232,13.07568H357.88064l-1.50488,17.43457a17.71737,17.71737,0,0,1,5.91553-3.39844,28.412,28.412,0,0,1,9.9624-1.479,28.83812,28.83812,0,0,1,11.02637,1.97168,22.72112,22.72112,0,0,1,8.043,5.42236,22.41259,22.41259,0,0,1,4.87744,8.27637,32.81463,32.81463,0,0,1,1.63428,10.58545,29.94732,29.94732,0,0,1-2.12744,11.46729,24.94236,24.94236,0,0,1-6.14844,8.9248,28.13845,28.13845,0,0,1-9.833,5.81152A38.54447,38.54447,0,0,1,366.70193,180.81364Z" fill="#1973b4"/><g clip-path="url(#a)"><path d="M119.03811,29.58372s-.02,7.96382,20.79792,20.61162c40.41941,24.55663,40.28318,47.06949,40.28318,51.79394,0,20.06893-20.88762,33.04231-30.5793,22.54224,0,0,9.50966-7.05764,9.50966-17.91,0,0-6.97376,4.59639-10.61913,5.38887,0,0,4.75483-8.40028,2.53591-23.14029,0,0-3.80382,7.44927-16.00792,13.4721,0,0,4.75483-10.61913.317-20.76283,0,0,.95093,12.67961-27.89512,26.15162S87.41,134.67514,87.41,134.67514s5.75026-6.10629,15.51272-1.81774c13.20736,5.80184,7.87,29.08437-13.36834,29.08437-20.67747,0-34.24962-22.48689-34.24962-40.04616,0-7.26015.787-20.61718,13.904-35.30817,10.43295-11.6849,23.29777-17.84991,26.059-30.771-14.29747,13.24812-40.0758,21.89389-55.40589,44.5658-13.76979,20.36437-9.29919,47.30036-6.82038,55.586a91.1633,91.1633,0,0,0,87.31244,64.96411c50.32581,0,91.64753-40.27245,91.64753-90.59818C212.00139,54.146,139.57049,46.06172,119.03811,29.58372Z" fill="#1973b4"/><path d="M137.254,148.92885s2.28636,36.1963-40.58876,41.5341c-27.99875,3.48574-50.0353-14.35608-59.59614-37.08163-6.65592-15.82073-7.26553-34.00834.36878-49.01479,0,0-27.80493,26.50176-26.52645,66.16515,1.32755,41.18573,33.91638,95.31166,156.1759,79.64716,40.64662-5.20785,55.55484-62.163,56.15744-95.98049C223.994,112.14956,204.319,92.21909,204.319,92.21909s10.26827,29.70975-13.39839,53.37642C177.73325,158.78288,155.29449,163.34624,137.254,148.92885Z" fill="#54b9de" opacity="0.4" style="mix-blend-mode:lighten"/><path d="M203.254,169.92885s-40.87708,12.47289-66-21c0,0,10.99077,42.60284-35.84256,70.26951,0,0,16.22667,48.10912,69.82591,24.22575C188.43556,235.76071,201.39182,198.72618,203.254,169.92885Z" fill="#54b9de" opacity="0.6" style="mix-blend-mode:lighten"/><path d="M132.08729,231.30385s25.5741-32.60549,5.16667-82.375c0,0,18.3241,37.43617,51.16667,50.66667C188.42062,199.59551,168.78107,232.47375,132.08729,231.30385Z" fill="#54b9de" opacity="0.8" style="mix-blend-mode:lighten"/><path d="M113.80683,124.75856a45.51781,45.51781,0,0,0,21.19-22.44225s4.75515-10.625.314-20.77618c0,0,.95164,12.689-27.91576,26.171S87.41,134.67514,87.41,134.67514a12.65358,12.65358,0,0,1,5.79972-3.02257C97.95969,130.3747,105.43621,129.07332,113.80683,124.75856Z" fill="#54b9de" opacity="0.6" style="mix-blend-mode:overlay"/><path d="M114.634,130.63117c12.40153,0,26.74785-5.76439,33.847-18.63552a28.18616,28.18616,0,0,0,2.58891-8.34913,45.46935,45.46935,0,0,0-.04136-15.15712s-2.35076,6.58412-16.03169,13.82691a111.155,111.155,0,0,1-19.75127,7.813C82.625,120.02912,87.41,134.67514,87.41,134.67514,92.55055,131.27261,92.58157,130.63117,114.634,130.63117Z" fill="#54b9de" opacity="0.4" style="mix-blend-mode:overlay"/><path d="M114.634,130.63117c11.401,0,26.90119.64112,34.95192-6.10715,4.93724-4.13848,9.44509-9.60787,9.53-17.94264,0,0-6.75362,4.45761-10.63631,5.41606-5.37086,1.3258-15.035,3.35915-23.87688,2.85726C94.59715,113.15148,87.41,134.67514,87.41,134.67514,91.54766,130.8487,96.5828,130.63117,114.634,130.63117Z" fill="#54b9de" opacity="0.2" style="mix-blend-mode:overlay"/><path d="M119.03811,29.58372s-.02,7.96382,20.79792,20.61162c40.41941,24.55663,40.28318,47.06949,40.28318,51.79394,0,20.06893-20.88762,33.04231-30.5793,22.54224,0,0,9.50966-7.05764,9.50966-17.91,0,0-6.97376,4.59639-10.61913,5.38887,0,0,4.75483-8.40028,2.53591-23.14029,0,0-3.80382,7.44927-16.00792,13.4721,0,0,4.75483-10.61913.317-20.76283,0,0,.95093,12.67961-27.89512,26.15162S87.41,134.67514,87.41,134.67514s5.75026-6.10629,15.51272-1.81774c13.20736,5.80184,7.87,29.08437-13.36834,29.08437-20.67747,0-34.24962-22.48689-34.24962-40.04616,0-7.26015.787-20.61718,13.904-35.30817,10.43295-11.6849,23.29777-17.84991,26.059-30.771-14.29747,13.24812-40.0758,21.89389-55.40589,44.5658-13.76979,20.36437-9.29919,47.30036-6.82038,55.586a91.1633,91.1633,0,0,0,87.31244,64.96411c50.32581,0,91.64753-40.27245,91.64753-90.59818C212.00139,54.146,139.57049,46.06172,119.03811,29.58372Z" fill="url(#b)" style="mix-blend-mode:overlay"/></g></g></svg>